# xmcd
#
# Track frame offsets:
#	150
#	14504
#	27898
#	41257
#	55119
#	69727
#	84186
#	96334
#	109465
#	124149
#	136596
#	151811
#	164355
#	177374
#	191611
#	203168
#	216682
#	229182
#	243215
#	255460
#
# Disc length: 3580 seconds
#
# Revision: 1
# Processed by: cddbd v1.5.2PL0 Copyright (c) Steve Scherf et al.
# Submitted via: audiograbber 1.83.01
#
DISCID=110dfa14
DTITLE=Carter Family - Essential CD Collection - 3
DYEAR=2016
DGENRE=Country
TTITLE0=Can The Circle Be Unbroken
TTITLE1=My Dixie Darling
TTITLE2=Are You Lonesome Tonight
TTITLE3=The Wayworn Traveller
TTITLE4=Just Another Broken Heart
TTITLE5=In A Little Village Churchyard
TTITLE6=Jealous Hearted Me
TTITLE7=No Depression (In Heaven)
TTITLE8=In The Shadow Of Clinch Mountain
TTITLE9=Hello Stranger
TTITLE10=Never Let The Devil Get The Upper Hand Of You
TTITLE11=When This Evening Sun Goes Down
TTITLE12=You Better Leave That Liar Alone
TTITLE13=You Are My Flower
TTITLE14=Lonesome Homesick Blues
TTITLE15=Girl On The Green Briar Store
TTITLE16=Something Got A Hold Of Me
TTITLE17=Keep On The Firing Line
TTITLE18=Waves On The Sea
TTITLE19=Rambling Boy
EXTD=
EXTT0=
EXTT1=
EXTT2=
EXTT3=
EXTT4=
EXTT5=
EXTT6=
EXTT7=
EXTT8=
EXTT9=
EXTT10=
EXTT11=
EXTT12=
EXTT13=
EXTT14=
EXTT15=
EXTT16=
EXTT17=
EXTT18=
EXTT19=
PLAYORDER=
